<svg width="240" height="37" viewBox="0 0 240 37" fill="none"
  xmlns="http://www.w3.org/2000/svg">
  <path d="M48.344 2.304L39.56 36H29.624L24.248 13.824L18.68 36H8.744L0.2 2.304H8.984L13.832 26.832L19.832 2.304H28.856L34.616 26.832L39.512 2.304H48.344ZM50.8284 22.56C50.8284 19.808 51.3404 17.392 52.3644 15.312C53.4204 13.232 54.8444 11.632 56.6364 10.512C58.4284 9.392 60.4284 8.832 62.6364 8.832C64.5244 8.832 66.1724 9.216 67.5804 9.984C69.0204 10.752 70.1244 11.76 70.8924 13.008V9.216H79.1004V36H70.8924V32.208C70.0924 33.456 68.9724 34.464 67.5324 35.232C66.1244 36 64.4764 36.384 62.5884 36.384C60.4124 36.384 58.4284 35.824 56.6364 34.704C54.8444 33.552 53.4204 31.936 52.3644 29.856C51.3404 27.744 50.8284 25.312 50.8284 22.56ZM70.8924 22.608C70.8924 20.56 70.3164 18.944 69.1644 17.76C68.0444 16.576 66.6684 15.984 65.0364 15.984C63.4044 15.984 62.0124 16.576 60.8604 17.76C59.7404 18.912 59.1804 20.512 59.1804 22.56C59.1804 24.608 59.7404 26.24 60.8604 27.456C62.0124 28.64 63.4044 29.232 65.0364 29.232C66.6684 29.232 68.0444 28.64 69.1644 27.456C70.3164 26.272 70.8924 24.656 70.8924 22.608ZM95.9345 36.384C93.5985 36.384 91.5185 35.984 89.6945 35.184C87.8705 34.384 86.4305 33.296 85.3745 31.92C84.3185 30.512 83.7265 28.944 83.5985 27.216H91.7105C91.8065 28.144 92.2385 28.896 93.0065 29.472C93.7745 30.048 94.7185 30.336 95.8385 30.336C96.8625 30.336 97.6465 30.144 98.1905 29.76C98.7665 29.344 99.0545 28.816 99.0545 28.176C99.0545 27.408 98.6545 26.848 97.8545 26.496C97.0545 26.112 95.7585 25.696 93.9665 25.248C92.0465 24.8 90.4465 24.336 89.1665 23.856C87.8865 23.344 86.7825 22.56 85.8545 21.504C84.9265 20.416 84.4625 18.96 84.4625 17.136C84.4625 15.6 84.8785 14.208 85.7105 12.96C86.5745 11.68 87.8225 10.672 89.4545 9.936C91.1185 9.2 93.0865 8.832 95.3585 8.832C98.7185 8.832 101.359 9.664 103.279 11.328C105.231 12.992 106.351 15.2 106.639 17.952H99.0545C98.9265 17.024 98.5105 16.288 97.8065 15.744C97.1345 15.2 96.2385 14.928 95.1185 14.928C94.1585 14.928 93.4225 15.12 92.9105 15.504C92.3985 15.856 92.1425 16.352 92.1425 16.992C92.1425 17.76 92.5425 18.336 93.3425 18.72C94.1745 19.104 95.4545 19.488 97.1825 19.872C99.1665 20.384 100.783 20.896 102.031 21.408C103.279 21.888 104.367 22.688 105.295 23.808C106.255 24.896 106.751 26.368 106.783 28.224C106.783 29.792 106.335 31.2 105.439 32.448C104.575 33.664 103.311 34.624 101.647 35.328C100.015 36.032 98.1105 36.384 95.9345 36.384ZM128.268 8.928C131.34 8.928 133.804 9.952 135.66 12C137.516 14.016 138.444 16.8 138.444 20.352V36H130.284V21.456C130.284 19.664 129.82 18.272 128.892 17.28C127.964 16.288 126.716 15.792 125.148 15.792C123.58 15.792 122.332 16.288 121.404 17.28C120.476 18.272 120.012 19.664 120.012 21.456V36H111.804V0.48H120.012V12.816C120.844 11.632 121.98 10.688 123.42 9.984C124.86 9.28 126.476 8.928 128.268 8.928ZM176.256 2.304V8.88H162.528V15.984H172.8V22.368H162.528V36H154.32V2.304H176.256ZM207.018 9.216V36H198.81V32.352C197.978 33.536 196.842 34.496 195.402 35.232C193.994 35.936 192.426 36.288 190.698 36.288C188.65 36.288 186.842 35.84 185.274 34.944C183.706 34.016 182.49 32.688 181.626 30.96C180.762 29.232 180.33 27.2 180.33 24.864V9.216H188.49V23.76C188.49 25.552 188.954 26.944 189.882 27.936C190.81 28.928 192.058 29.424 193.626 29.424C195.226 29.424 196.49 28.928 197.418 27.936C198.346 26.944 198.81 25.552 198.81 23.76V9.216H207.018ZM211.282 22.56C211.282 19.808 211.794 17.392 212.818 15.312C213.874 13.232 215.298 11.632 217.09 10.512C218.882 9.392 220.882 8.832 223.09 8.832C224.978 8.832 226.626 9.216 228.034 9.984C229.474 10.752 230.578 11.76 231.346 13.008V9.216H239.554V36H231.346V32.208C230.546 33.456 229.426 34.464 227.986 35.232C226.578 36 224.93 36.384 223.042 36.384C220.866 36.384 218.882 35.824 217.09 34.704C215.298 33.552 213.874 31.936 212.818 29.856C211.794 27.744 211.282 25.312 211.282 22.56ZM231.346 22.608C231.346 20.56 230.77 18.944 229.618 17.76C228.498 16.576 227.122 15.984 225.49 15.984C223.858 15.984 222.466 16.576 221.314 17.76C220.194 18.912 219.634 20.512 219.634 22.56C219.634 24.608 220.194 26.24 221.314 27.456C222.466 28.64 223.858 29.232 225.49 29.232C227.122 29.232 228.498 28.64 229.618 27.456C230.77 26.272 231.346 24.656 231.346 22.608Z" fill="#00B761"/>
</svg>
